<svg xmlns="http://www.w3.org/2000/svg" viewBox="0 0 512 512" width="512" height="512" role="img" aria-label="Decorative gold roulette wheel outer ring frame">
  <defs>
    <filter id="softShadow" x="-20%" y="-20%" width="140%" height="140%">
      <feDropShadow dx="0" dy="6" stdDeviation="7" flood-color="#3D2B1F" flood-opacity="0.22"/>
    </filter>
    <linearGradient id="goldGrad" x1="92" y1="76" x2="420" y2="436" gradientUnits="userSpaceOnUse">
      <stop offset="0" stop-color="#D4A853"/>
      <stop offset="1" stop-color="#B8893A"/>
    </linearGradient>
    <linearGradient id="goldSoft" x1="128" y1="104" x2="384" y2="408" gradientUnits="userSpaceOnUse">
      <stop offset="0" stop-color="#E0BC6E"/>
      <stop offset="1" stop-color="#D4A853"/>
    </linearGradient>
    <mask id="donutMask">
      <rect width="512" height="512" fill="black"/>
      <circle cx="256" cy="256" r="244" fill="white"/>
      <circle cx="256" cy="256" r="179" fill="black"/>
    </mask>
    <g id="tick">
      <rect x="253.5" y="23" width="5" height="34" rx="2.5" fill="#6F4E37" opacity="0.88"/>
    </g>
    <g id="smallTick">
      <rect x="254" y="31" width="4" height="22" rx="2" fill="#F5F0E8" opacity="0.72"/>
    </g>
  </defs>

  <g filter="url(#softShadow)">
    <path d="M256 12a244 244 0 1 1 0 488 244 244 0 0 1 0-488Zm0 65a179 179 0 1 0 0 358 179 179 0 0 0 0-358Z" fill="url(#goldGrad)"/>
    <path d="M256 25a231 231 0 1 1 0 462 231 231 0 0 1 0-462Zm0 39a192 192 0 1 0 0 384 192 192 0 0 0 0-384Z" fill="none" stroke="#F5F0E8" stroke-width="2" opacity="0.55"/>
    <path d="M256 45a211 211 0 1 1 0 422 211 211 0 0 1 0-422Zm0 28a183 183 0 1 0 0 366 183 183 0 0 0 0-366Z" fill="none" stroke="#6F4E37" stroke-width="3" opacity="0.88"/>
    <path d="M256 68a188 188 0 1 1 0 376 188 188 0 0 1 0-376Zm0 9a179 179 0 1 0 0 358 179 179 0 0 0 0-358Z" fill="url(#goldSoft)" opacity="0.95"/>
  </g>

  <g mask="url(#donutMask)">
    <g>
      <use href="#tick" transform="rotate(0 256 256)"/>
      <use href="#smallTick" transform="rotate(7.5 256 256)"/>
      <use href="#tick" transform="rotate(15 256 256)"/>
      <use href="#smallTick" transform="rotate(22.5 256 256)"/>
      <use href="#tick" transform="rotate(30 256 256)"/>
      <use href="#smallTick" transform="rotate(37.5 256 256)"/>
      <use href="#tick" transform="rotate(45 256 256)"/>
      <use href="#smallTick" transform="rotate(52.5 256 256)"/>
      <use href="#tick" transform="rotate(60 256 256)"/>
      <use href="#smallTick" transform="rotate(67.5 256 256)"/>
      <use href="#tick" transform="rotate(75 256 256)"/>
      <use href="#smallTick" transform="rotate(82.5 256 256)"/>
      <use href="#tick" transform="rotate(90 256 256)"/>
      <use href="#smallTick" transform="rotate(97.5 256 256)"/>
      <use href="#tick" transform="rotate(105 256 256)"/>
      <use href="#smallTick" transform="rotate(112.5 256 256)"/>
      <use href="#tick" transform="rotate(120 256 256)"/>
      <use href="#smallTick" transform="rotate(127.5 256 256)"/>
      <use href="#tick" transform="rotate(135 256 256)"/>
      <use href="#smallTick" transform="rotate(142.5 256 256)"/>
      <use href="#tick" transform="rotate(150 256 256)"/>
      <use href="#smallTick" transform="rotate(157.5 256 256)"/>
      <use href="#tick" transform="rotate(165 256 256)"/>
      <use href="#smallTick" transform="rotate(172.5 256 256)"/>
      <use href="#tick" transform="rotate(180 256 256)"/>
      <use href="#smallTick" transform="rotate(187.5 256 256)"/>
      <use href="#tick" transform="rotate(195 256 256)"/>
      <use href="#smallTick" transform="rotate(202.5 256 256)"/>
      <use href="#tick" transform="rotate(210 256 256)"/>
      <use href="#smallTick" transform="rotate(217.5 256 256)"/>
      <use href="#tick" transform="rotate(225 256 256)"/>
      <use href="#smallTick" transform="rotate(232.5 256 256)"/>
      <use href="#tick" transform="rotate(240 256 256)"/>
      <use href="#smallTick" transform="rotate(247.5 256 256)"/>
      <use href="#tick" transform="rotate(255 256 256)"/>
      <use href="#smallTick" transform="rotate(262.5 256 256)"/>
      <use href="#tick" transform="rotate(270 256 256)"/>
      <use href="#smallTick" transform="rotate(277.5 256 256)"/>
      <use href="#tick" transform="rotate(285 256 256)"/>
      <use href="#smallTick" transform="rotate(292.5 256 256)"/>
      <use href="#tick" transform="rotate(300 256 256)"/>
      <use href="#smallTick" transform="rotate(307.5 256 256)"/>
      <use href="#tick" transform="rotate(315 256 256)"/>
      <use href="#smallTick" transform="rotate(322.5 256 256)"/>
      <use href="#tick" transform="rotate(330 256 256)"/>
      <use href="#smallTick" transform="rotate(337.5 256 256)"/>
      <use href="#tick" transform="rotate(345 256 256)"/>
      <use href="#smallTick" transform="rotate(352.5 256 256)"/>
    </g>
  </g>

  <circle cx="256" cy="256" r="244" fill="none" stroke="#D4A853" stroke-width="4"/>
  <circle cx="256" cy="256" r="179" fill="none" stroke="#6F4E37" stroke-width="3" opacity="0.82"/>
  <circle cx="256" cy="256" r="198" fill="none" stroke="#D4A853" stroke-width="4" opacity="0.92"/>
</svg>
